<svg id="Component_1" data-name="Component 1" xmlns="http://www.w3.org/2000/svg" xmlns:xlink="http://www.w3.org/1999/xlink" width="1000" height="1000" viewBox="0 0 1000 1000">
  <defs>
    <linearGradient id="linear-gradient" x1="0.5" x2="0.5" y2="1" gradientUnits="objectBoundingBox">
      <stop offset="0" stop-color="#fff"/>
      <stop offset="0.278" stop-color="#a1a6ba"/>
      <stop offset="1" stop-color="#0c132d"/>
    </linearGradient>
    <linearGradient id="linear-gradient-2" x1="0.5" y1="1" x2="0.5" gradientUnits="objectBoundingBox">
      <stop offset="0" stop-color="#fff"/>
      <stop offset="0.602" stop-color="#a1a6ba"/>
      <stop offset="0.82" stop-color="#00aeef"/>
      <stop offset="1" stop-color="#0c132d"/>
    </linearGradient>
    <linearGradient id="linear-gradient-3" x1="0.5" x2="0.5" y2="1" gradientUnits="objectBoundingBox">
      <stop offset="0" stop-color="#fff"/>
      <stop offset="0.528" stop-color="#00aeef"/>
      <stop offset="1" stop-color="#262262"/>
    </linearGradient>
  </defs>
  <path id="Path_175" data-name="Path 175" d="M700,200c-276.16,0-500,223.85-500,500s223.84,500,500,500,500-223.85,500-500S976.16,200,700,200Z" transform="translate(-200 -200)" fill="url(#linear-gradient)"/>
  <path id="Path_176" data-name="Path 176" d="M1145.82,675.928c0,259.54-210.34,469.91-469.9,469.91s-469.9-210.37-469.9-469.91,210.35-469.91,469.9-469.91S1145.82,416.383,1145.82,675.928Z" transform="translate(-175.92 -175.928)" stroke="#e4e3ef" stroke-miterlimit="10" stroke-width="1" fill="url(#linear-gradient-2)"/>
  <path id="Path_177" data-name="Path 177" d="M1099.979,655.552c0,245.44-199.025,444.435-444.435,444.435-245.455,0-444.43-199-444.43-444.435,0-245.465,198.975-444.44,444.43-444.44C900.954,211.112,1099.979,410.087,1099.979,655.552Z" transform="translate(-155.544 -155.552)" fill="url(#linear-gradient-3)"/>
  <path id="Path_178" data-name="Path 178" d="M290.8,260.281" transform="translate(163.22 41.124)" fill="#262262"/>
  <path id="Path_179" data-name="Path 179" d="M211.94,287.632a444.456,444.456,0,0,0-4.44,65.825C211.428,600.5,407.625,797.9,652,797.9c244.35,0,444.551-199.042,444.551-444.492,0-22.385-.9-44.236-4.094-65.716Z" transform="translate(-152 151.028)" fill="#0c132d"/>
  <g id="Group_108" data-name="Group 108" transform="translate(97.52 481.07)">
    <g id="Group_107" data-name="Group 107" transform="translate(15 15)">
      <path id="Path_208" data-name="Path 208" d="M222.5,299.545h14.55q14.55,0,19.7,1.125a13.57,13.57,0,0,1,8.4,5.735q3.248,4.612,3.245,14.72,0,9.225-2.3,12.4t-9.035,3.81q6.1,1.515,8.205,4.055a12.06,12.06,0,0,1,2.61,4.665q.51,2.13.515,11.695V378.6h-19.09V352.33q0-6.352-1-7.86c-.67-1.01-2.415-1.515-5.25-1.515V378.6H222.5Zm20.56,13.525v17.58q3.465,0,4.86-.95t1.39-6.175V319.18q0-3.758-1.345-4.93T243.064,313.07Z" transform="translate(-222.504 -297.89)" fill="#e4e3ef"/>
      <path id="Path_209" data-name="Path 209" d="M253.473,299.545v10.3H233.158v-10.3Zm0,14.255v64.795H233.158V313.8Z" transform="translate(-179.888 -297.89)" fill="#e4e3ef"/>
      <path id="Path_210" data-name="Path 210" d="M282.737,302.4l-9.23,64.795h-25.78l-9.91-64.795h17.615l5.55,47.315q.653-5.22,2.225-25.43.84-11.287,1.915-21.885Z" transform="translate(-161.252 -286.486)" fill="#e4e3ef"/>
      <path id="Path_211" data-name="Path 211" d="M292.521,336.873H266.986v14.015q0,4.395.635,5.665a2.464,2.464,0,0,0,2.44,1.27,2.964,2.964,0,0,0,3.005-1.685q.757-1.687.755-6.52v-8.545h18.7v4.785a43.2,43.2,0,0,1-.755,9.23,18.778,18.778,0,0,1-3.54,6.885,17.3,17.3,0,0,1-7.055,5.495,27.334,27.334,0,0,1-10.72,1.83,31.122,31.122,0,0,1-11.035-1.805,17.138,17.138,0,0,1-11.13-11.89,44.937,44.937,0,0,1-1.025-11.01V325.7q0-8.5,2.295-13.405a15.754,15.754,0,0,1,7.52-7.52,26.448,26.448,0,0,1,12.01-2.61q8.295,0,13.695,3.15a17.353,17.353,0,0,1,7.57,8.35q2.175,5.2,2.175,14.625v8.585Zm-19.775-10.545v-4.735a24.027,24.027,0,0,0-.535-6.5,2.124,2.124,0,0,0-2.195-1.465c-1.365,0-2.215.415-2.54,1.245s-.49,3.065-.49,6.715v4.735h5.76Z" transform="translate(-123.476 -287.418)" fill="#e4e3ef"/>
      <path id="Path_212" data-name="Path 212" d="M277.327,303.332l-.78,8.52q4.3-9.157,12.45-9.69v22.805q-5.422,0-7.96,1.465a6.134,6.134,0,0,0-3.125,4.075q-.585,2.61-.585,12.035v25.585H257.6V303.332h19.725Z" transform="translate(-82.112 -287.422)" fill="#e4e3ef"/>
      <path id="Path_213" data-name="Path 213" d="M316.874,335.294H296.319v-13.74q0-5.993-.66-7.48c-.44-.985-1.41-1.485-2.905-1.485q-2.542,0-3.225,1.8t-.685,7.815v36.72q0,5.768.685,7.52c.455,1.17,1.48,1.76,3.075,1.76a2.89,2.89,0,0,0,3.005-1.765q.7-1.755.71-8.27v-9.935h20.555v3.08q0,12.277-1.735,17.4t-7.665,9q-5.933,3.863-14.625,3.86-9.037,0-14.9-3.27a15.89,15.89,0,0,1-7.765-9.06q-1.9-5.79-1.905-17.4V328.754a102.692,102.692,0,0,1,.585-12.815,17.988,17.988,0,0,1,3.49-8.23,19.428,19.428,0,0,1,8.055-6.225,29.081,29.081,0,0,1,11.84-2.27q9.082,0,14.99,3.51t7.765,8.755q1.853,5.235,1.855,16.31v7.505Z" transform="translate(-39.384 -299.214)" fill="#e4e3ef"/>
      <path id="Path_214" data-name="Path 214" d="M299.674,299.545v10.3H279.359v-10.3Zm0,14.255v64.795H279.359V313.8Z" transform="translate(4.916 -297.89)" fill="#e4e3ef"/>
      <path id="Path_215" data-name="Path 215" d="M308.219,300.668v10.2h5.32v10.255h-5.32V355.8q0,6.4.66,7.13t5.495.73v10.45h-7.96a56.874,56.874,0,0,1-9.62-.56,10.24,10.24,0,0,1-5.08-2.59,8.616,8.616,0,0,1-2.735-4.64q-.54-2.617-.535-12.28v-32.91h-4.25V310.873h4.25V300.668h19.775Z" transform="translate(24.256 -293.398)" fill="#e4e3ef"/>
      <path id="Path_216" data-name="Path 216" d="M335.912,302.4l-5.635,46.875q-1.335,11.13-2.24,15.185a16.246,16.246,0,0,1-3,6.69,12.092,12.092,0,0,1-5.835,3.88q-3.743,1.245-11.94,1.245H295.3v-10.35a22.81,22.81,0,0,0,5.92-.465,1.955,1.955,0,0,0,1.32-2.075q0-.78-1.225-6.785l-10.8-54.2h17.91l6.48,43.75,3.16-43.75Z" transform="translate(49.528 -286.486)" fill="#e4e3ef"/>
      <path id="Path_217" data-name="Path 217" d="M303.943,299.545h20.705a48.653,48.653,0,0,1,12.92,1.32,14.424,14.424,0,0,1,6.785,3.81,13.088,13.088,0,0,1,3.075,6.03,54.245,54.245,0,0,1,.8,10.96v6.885q0,7.567-1.565,11.035a10.7,10.7,0,0,1-5.73,5.32,27.191,27.191,0,0,1-10.92,1.855h-5.52V378.6H303.938v-79.05ZM324.5,313.07v20.115c.585.035,1.095.05,1.515.05q2.843,0,3.935-1.39t1.095-5.785v-6.5q0-4.05-1.27-5.275T324.5,313.07Z" transform="translate(103.232 -297.89)" fill="#e4e3ef"/>
      <path id="Path_218" data-name="Path 218" d="M333.587,303.332l-.78,8.52q4.3-9.157,12.45-9.69v22.805q-5.422,0-7.96,1.465a6.134,6.134,0,0,0-3.125,4.075q-.585,2.61-.585,12.035v25.585H313.862V303.332h19.725Z" transform="translate(142.928 -287.422)" fill="#e4e3ef"/>
      <path id="Path_219" data-name="Path 219" d="M366.117,326.087v15.87a67,67,0,0,1-.88,12.815,17.972,17.972,0,0,1-3.76,7.615,17.05,17.05,0,0,1-7.4,5.225,29.544,29.544,0,0,1-10.375,1.685,37.053,37.053,0,0,1-11.085-1.44,15.052,15.052,0,0,1-7.055-4.345,17.255,17.255,0,0,1-3.59-7.03A52.653,52.653,0,0,1,320.9,344.1V327.5q0-9.03,1.955-14.11a16.262,16.262,0,0,1,7.03-8.155q5.078-3.075,12.99-3.075a29.59,29.59,0,0,1,11.4,1.98,17.861,17.861,0,0,1,10.89,11.695A40.668,40.668,0,0,1,366.117,326.087Zm-19.725-4.88q0-4.98-.535-6.275a2.212,2.212,0,0,0-2.3-1.295,2.312,2.312,0,0,0-2.345,1.295q-.585,1.3-.585,6.275v29.25q0,4.59.585,5.98a2.252,2.252,0,0,0,2.3,1.39,2.275,2.275,0,0,0,2.32-1.27,16.542,16.542,0,0,0,.56-5.47Z" transform="translate(171.088 -287.422)" fill="#e4e3ef"/>
      <path id="Path_220" data-name="Path 220" d="M415.561,299.545,406.406,378.6H380.741q-3.525-18.217-6.22-41.455-1.23,9.96-5.73,41.455h-25.52l-9.205-79.055h19.97l2.175,27.585,2.1,26.665q1.133-20.7,5.685-54.25h21.35q.428,3.465,2.24,26.075l2.27,30.08q1.748-28.7,5.735-56.15h19.97Z" transform="translate(223.744 -297.89)" fill="#e4e3ef"/>
      <path id="Path_221" data-name="Path 221" d="M369.388,328.428h-18.5v-4.345q0-7.523,1.735-11.595t6.96-7.2q5.227-3.127,13.575-3.125,10.005,0,15.09,3.54a13.813,13.813,0,0,1,6.105,8.69q1.027,5.145,1.025,21.215v32.52h-19.19v-5.77a12.056,12.056,0,0,1-11.475,6.945,16.634,16.634,0,0,1-9.495-2.9q-4.32-2.91-4.32-12.72v-5.33q0-7.275,2.3-9.91t11.375-6.15q9.72-3.81,10.4-5.125c.455-.875.685-2.67.685-5.37q0-5.078-.755-6.615a2.6,2.6,0,0,0-2.515-1.54q-2,0-2.49,1.295t-.49,6.715v6.78Zm6.25,8.885q-4.74,3.465-5.495,5.81a23.07,23.07,0,0,0-.755,6.74q0,5.032.66,6.495a2.578,2.578,0,0,0,2.61,1.465,2.415,2.415,0,0,0,2.415-1.145q.563-1.147.56-6.03V337.313Z" transform="translate(291.012 -287.418)" fill="#e4e3ef"/>
      <path id="Path_222" data-name="Path 222" d="M402.593,324.041h-17.48v-3.515q0-4.492-.515-5.69c-.345-.795-1.2-1.195-2.565-1.195a2.909,2.909,0,0,0-2.49,1.1,5.46,5.46,0,0,0-.83,3.295,16.533,16.533,0,0,0,.415,4.37,6.94,6.94,0,0,0,2.49,3.05,54.148,54.148,0,0,0,8.52,4.835q8.595,4.2,11.28,7.91t2.685,10.79q0,7.912-2.05,11.94a13.635,13.635,0,0,1-6.86,6.2,28.015,28.015,0,0,1-11.595,2.175,31.879,31.879,0,0,1-12.865-2.345q-5.348-2.347-7.35-6.35t-2-12.11v-3.125h17.48v4.1q0,5.22.66,6.785a2.559,2.559,0,0,0,2.61,1.565,3.535,3.535,0,0,0,2.93-1.05c.55-.7.83-2.175.83-4.42q0-4.635-1.075-5.81-1.117-1.17-11.475-6.935-8.693-4.883-10.6-8.86a21.677,21.677,0,0,1-1.9-9.45q0-7.762,2.05-11.45a13.315,13.315,0,0,1,6.96-5.69,30.026,30.026,0,0,1,11.4-2,32.351,32.351,0,0,1,10.96,1.635,16.868,16.868,0,0,1,6.935,4.32,11.546,11.546,0,0,1,2.93,4.98,36.236,36.236,0,0,1,.515,7.18v3.765Z" transform="translate(330.852 -287.426)" fill="#e4e3ef"/>
      <path id="Path_223" data-name="Path 223" d="M390.268,299.545V317.33a17.681,17.681,0,0,1,5.495-3.52,16.913,16.913,0,0,1,6.325-1.175,14.657,14.657,0,0,1,8.815,2.635,10.611,10.611,0,0,1,4.445,6.08q.81,3.443.805,12.575v44.68H396.428V333q0-5.663-.56-7.275a2.694,2.694,0,0,0-4.955.05q-.637,1.665-.635,6.59v46.24H370.553V299.55h19.715Z" transform="translate(369.692 -297.89)" fill="#e4e3ef"/>
    </g>
  </g>
  <path id="Path_224" data-name="Path 224" d="M240.927,404.545l-6.67,10.2L224.4,407.56l6.72-9.86-1.3-7.26,3.8-4.41,6.4-1.165,31.19-27.975s3.905-3.97-.3-15.945a5.784,5.784,0,0,0-.245-.7c-4.6-12.515,17.02-15.015,17.02-15.015l62.225,4.28a8.16,8.16,0,0,1,3.885,5.705l10.06.46.34,1.9,78.33-.08s-.74-5.02,8.445-5.445c9.165-.445.115.665.115.665l169.6-.355s4.34,1.16,4.74,5.345l305.18,1.3,2.14-2.8,5.56-.495.465,2.845,1.675-2.71,4.115-.73.435,2.3,2.23-2.545s6.74-2.55,7.505,3.19l.7,11.33-23.27,1.055-1.925-4.69-303.85-.825-4.945,6.485-174.49-.4-5.745-6.695L363,344.745l-2.125,1.445-9.45.935s-.62,5.47-8.51,6.08l-7.33.82-52.03,61.585s-7.405,12.025-26.815.905Z" transform="translate(-102.392 300.92)" fill="#e4e3ef"/>
  <g id="Group_109" data-name="Group 109" transform="translate(236.925 678.34)">
    <path id="Path_225" data-name="Path 225" d="M274.1,355.518H262.8v-7.56a13.377,13.377,0,0,0-.365-4.11,1.558,1.558,0,0,0-1.6-.815,1.662,1.662,0,0,0-1.77.99,15.165,15.165,0,0,0-.375,4.3v20.2a14.112,14.112,0,0,0,.375,4.135,1.606,1.606,0,0,0,1.69.965,1.587,1.587,0,0,0,1.65-.965,15.817,15.817,0,0,0,.39-4.55v-5.47h11.3v1.7q0,6.742-.955,9.57a9.765,9.765,0,0,1-4.215,4.95,14.439,14.439,0,0,1-8.04,2.125,16.65,16.65,0,0,1-8.19-1.8,8.723,8.723,0,0,1-4.27-4.98,32.641,32.641,0,0,1-1.045-9.57V351.918a56.5,56.5,0,0,1,.32-7.05,9.839,9.839,0,0,1,1.92-4.52,10.718,10.718,0,0,1,4.43-3.43,18.115,18.115,0,0,1,14.76.685,9.267,9.267,0,0,1,4.27,4.815,28.96,28.96,0,0,1,1.02,8.97v4.13Z" transform="translate(-247.385 -335.668)" fill="#e4e3ef"/>
    <path id="Path_226" data-name="Path 226" d="M278.28,350.442v8.73a36.587,36.587,0,0,1-.485,7.05,9.9,9.9,0,0,1-2.07,4.19,9.3,9.3,0,0,1-4.07,2.87,16.194,16.194,0,0,1-5.705.93,20.456,20.456,0,0,1-6.095-.79,8.278,8.278,0,0,1-3.88-2.4A9.492,9.492,0,0,1,254,367.162a28.974,28.974,0,0,1-.59-6.8v-9.13a22.408,22.408,0,0,1,1.075-7.765,8.911,8.911,0,0,1,3.865-4.48,13.642,13.642,0,0,1,7.145-1.69,16.309,16.309,0,0,1,6.27,1.085,10.167,10.167,0,0,1,4.045,2.83,10.011,10.011,0,0,1,1.945,3.6A22.2,22.2,0,0,1,278.28,350.442Zm-10.85-2.685a11.853,11.853,0,0,0-.295-3.445,1.225,1.225,0,0,0-1.26-.715,1.279,1.279,0,0,0-1.29.715,10.881,10.881,0,0,0-.32,3.445v16.09a10.433,10.433,0,0,0,.32,3.29,1.461,1.461,0,0,0,2.535.06,8.968,8.968,0,0,0,.31-3.01v-16.43Z" transform="translate(-223.285 -329.172)" fill="#e4e3ef"/>
    <path id="Path_227" data-name="Path 227" d="M269.8,337.932l-.19,3.39a8.665,8.665,0,0,1,3.01-3.025,7.828,7.828,0,0,1,3.975-1.005,7.7,7.7,0,0,1,6.85,4.035,9.685,9.685,0,0,1,3.09-3.025,7.362,7.362,0,0,1,3.815-1.005,7.49,7.49,0,0,1,4.58,1.34,5.94,5.94,0,0,1,2.325,3.29,27.741,27.741,0,0,1,.51,6.33v25.32H287.241V350.332a29.273,29.273,0,0,0-.31-5.65,1.359,1.359,0,0,0-1.435-1.09,1.416,1.416,0,0,0-1.49,1.075,27.25,27.25,0,0,0-.335,5.665v23.23H273.146V350.927a41.659,41.659,0,0,0-.255-6.29,1.292,1.292,0,0,0-1.41-1.045,1.626,1.626,0,0,0-1.235.55,2.147,2.147,0,0,0-.565,1.345c-.04.53-.055,1.65-.055,3.37v24.705H259.1V337.927h10.7Z" transform="translate(-200.521 -329.172)" fill="#e4e3ef"/>
    <path id="Path_228" data-name="Path 228" d="M278.282,337.932l-.19,3.39a8.664,8.664,0,0,1,3.01-3.025,7.827,7.827,0,0,1,3.975-1.005,7.7,7.7,0,0,1,6.85,4.035,9.685,9.685,0,0,1,3.09-3.025,7.362,7.362,0,0,1,3.815-1.005,7.49,7.49,0,0,1,4.58,1.34,5.942,5.942,0,0,1,2.325,3.29,27.755,27.755,0,0,1,.51,6.33v25.32H295.722V350.332a29.268,29.268,0,0,0-.31-5.65,1.359,1.359,0,0,0-1.435-1.09,1.416,1.416,0,0,0-1.49,1.075,27.25,27.25,0,0,0-.335,5.665v23.23H281.627V350.927a41.626,41.626,0,0,0-.255-6.29,1.292,1.292,0,0,0-1.41-1.045,1.626,1.626,0,0,0-1.235.55,2.146,2.146,0,0,0-.565,1.345c-.04.53-.055,1.65-.055,3.37v24.705H267.582V337.927h10.7Z" transform="translate(-166.597 -329.172)" fill="#e4e3ef"/>
    <path id="Path_229" data-name="Path 229" d="M300.886,356.385H286.841v7.7a8.5,8.5,0,0,0,.35,3.115,1.352,1.352,0,0,0,1.345.7,1.629,1.629,0,0,0,1.65-.93,10.1,10.1,0,0,0,.415-3.585v-4.7h10.285v2.63a23.827,23.827,0,0,1-.415,5.08,10.312,10.312,0,0,1-1.945,3.785,9.452,9.452,0,0,1-3.88,3.02,15.037,15.037,0,0,1-5.9,1.005,17.078,17.078,0,0,1-6.07-.995,9.633,9.633,0,0,1-4.095-2.725,9.8,9.8,0,0,1-2.025-3.815,24.665,24.665,0,0,1-.565-6.055v-10.4a17.718,17.718,0,0,1,1.26-7.37,8.647,8.647,0,0,1,4.135-4.135,16.6,16.6,0,0,1,14.135.3,9.532,9.532,0,0,1,4.165,4.595,21.438,21.438,0,0,1,1.2,8.04v4.73Zm-10.875-5.8V347.98a13.236,13.236,0,0,0-.3-3.57,1.163,1.163,0,0,0-1.21-.8c-.75,0-1.22.23-1.4.685a14.211,14.211,0,0,0-.27,3.69v2.605Z" transform="translate(-132.941 -329.18)" fill="#e4e3ef"/>
    <path id="Path_230" data-name="Path 230" d="M292.529,337.932l-.43,4.685q2.363-5.033,6.85-5.325v12.54a9.107,9.107,0,0,0-4.375.805,3.383,3.383,0,0,0-1.72,2.24,40.279,40.279,0,0,0-.32,6.62v14.07h-10.85V337.932Z" transform="translate(-110.189 -329.172)" fill="#e4e3ef"/>
    <path id="Path_231" data-name="Path 231" d="M309.856,351.378h-10.23v-4.105a8.007,8.007,0,0,0-.35-2.915,1.279,1.279,0,0,0-1.29-.765,1.254,1.254,0,0,0-1.26.675,8.59,8.59,0,0,0-.32,3.01v16.8a6.5,6.5,0,0,0,.485,2.86,1.535,1.535,0,0,0,1.425.955,1.463,1.463,0,0,0,1.49-1,11.954,11.954,0,0,0,.39-3.76V358.9h9.665a53.707,53.707,0,0,1-.31,6.405,10.246,10.246,0,0,1-1.8,4.375,9.657,9.657,0,0,1-3.96,3.385,17.134,17.134,0,0,1-13.325-.425,8.651,8.651,0,0,1-3.8-4.405,22.879,22.879,0,0,1-1.115-8.04v-10.12a19.551,19.551,0,0,1,.915-6.85,8.874,8.874,0,0,1,3.895-4.12,13.687,13.687,0,0,1,7.25-1.81,13.86,13.86,0,0,1,7.25,1.8,8.858,8.858,0,0,1,4.005,4.54A23.6,23.6,0,0,1,309.856,351.378Z" transform="translate(-94.701 -329.168)" fill="#e4e3ef"/>
    <path id="Path_232" data-name="Path 232" d="M302.232,335.852v5.665h-11.17v-5.665Zm0,7.84v35.635h-11.17V343.692Z" transform="translate(-72.677 -334.932)" fill="#e4e3ef"/>
    <path id="Path_233" data-name="Path 233" d="M304.157,351.736H293.982v-2.39a16.834,16.834,0,0,1,.95-6.375,8.878,8.878,0,0,1,3.83-3.96,14.41,14.41,0,0,1,7.465-1.72q5.505,0,8.295,1.945a7.58,7.58,0,0,1,3.36,4.78,75.227,75.227,0,0,1,.56,11.67v17.885h-10.55V370.4a6.627,6.627,0,0,1-6.315,3.815,9.149,9.149,0,0,1-5.22-1.6q-2.377-1.6-2.38-6.995v-2.93q0-4,1.26-5.45t6.26-3.385c3.565-1.395,5.47-2.34,5.72-2.815a7.457,7.457,0,0,0,.375-2.96,9.941,9.941,0,0,0-.415-3.64,1.432,1.432,0,0,0-1.38-.845c-.73,0-1.19.24-1.37.715a14.625,14.625,0,0,0-.27,3.69v3.735Zm3.435,4.89q-2.6,1.905-3.02,3.2a12.587,12.587,0,0,0-.42,3.705,10.676,10.676,0,0,0,.365,3.57,1.42,1.42,0,0,0,1.435.81,1.333,1.333,0,0,0,1.33-.635,10.193,10.193,0,0,0,.31-3.315v-7.33Z" transform="translate(-61.017 -329.176)" fill="#e4e3ef"/>
    <path id="Path_234" data-name="Path 234" d="M310.788,335.852v43.475h-11.17V335.852Z" transform="translate(-38.453 -334.932)" fill="#e4e3ef"/>
    <path id="Path_235" data-name="Path 235" d="M307.028,335.852h5.83v50.595h-5.83Z" transform="translate(-8.813 -334.932)" fill="#e4e3ef"/>
    <path id="Path_236" data-name="Path 236" d="M313.432,335.852h8.005a61.449,61.449,0,0,1,10.835.615,7.456,7.456,0,0,1,4.62,3.155q1.785,2.542,1.785,8.095c0,3.39-.42,5.66-1.265,6.825s-2.495,1.86-4.965,2.09q3.352.832,4.51,2.23a6.592,6.592,0,0,1,1.435,2.565,40.136,40.136,0,0,1,.285,6.435v11.465H328.172v-14.45q0-3.5-.545-4.32c-.365-.555-1.335-.835-2.89-.835v19.6h-11.3Zm11.3,7.435v9.67a5.022,5.022,0,0,0,2.675-.52c.51-.35.76-1.485.76-3.4v-2.4a3.636,3.636,0,0,0-.735-2.71A4.192,4.192,0,0,0,324.732,343.287Z" transform="translate(16.803 -334.932)" fill="#e4e3ef"/>
    <path id="Path_237" data-name="Path 237" d="M344.117,356.385H330.072v7.7a8.654,8.654,0,0,0,.345,3.115,1.361,1.361,0,0,0,1.345.7,1.64,1.64,0,0,0,1.655-.93,10.1,10.1,0,0,0,.415-3.585v-4.7h10.285v2.63a23.513,23.513,0,0,1-.415,5.08,10.372,10.372,0,0,1-1.95,3.785,9.437,9.437,0,0,1-3.875,3.02,15.064,15.064,0,0,1-5.9,1.005,17.1,17.1,0,0,1-6.07-.995,9.616,9.616,0,0,1-4.09-2.725,9.812,9.812,0,0,1-2.03-3.815,24.711,24.711,0,0,1-.56-6.055v-10.4a17.72,17.72,0,0,1,1.26-7.37,8.671,8.671,0,0,1,4.135-4.135,16.615,16.615,0,0,1,14.14.3,9.507,9.507,0,0,1,4.165,4.595,21.556,21.556,0,0,1,1.19,8.04v4.73Zm-10.875-5.8V347.98a12.95,12.95,0,0,0-.3-3.57,1.163,1.163,0,0,0-1.2-.8c-.75,0-1.215.23-1.4.685a14.214,14.214,0,0,0-.27,3.69v2.605Z" transform="translate(39.983 -329.18)" fill="#e4e3ef"/>
    <path id="Path_238" data-name="Path 238" d="M347.718,349.333H338.1V347.4a10.429,10.429,0,0,0-.28-3.13q-.285-.66-1.41-.66a1.6,1.6,0,0,0-1.37.6,2.971,2.971,0,0,0-.455,1.81,9.166,9.166,0,0,0,.23,2.4,3.763,3.763,0,0,0,1.365,1.68,29.72,29.72,0,0,0,4.69,2.66q4.725,2.31,6.2,4.345a10.053,10.053,0,0,1,1.48,5.94,14.886,14.886,0,0,1-1.13,6.565,7.51,7.51,0,0,1-3.775,3.41,15.354,15.354,0,0,1-6.375,1.2,17.534,17.534,0,0,1-7.075-1.29,7.717,7.717,0,0,1-4.045-3.49,15.472,15.472,0,0,1-1.1-6.66v-1.72h9.615v2.255a11.762,11.762,0,0,0,.365,3.735,1.407,1.407,0,0,0,1.435.86,1.938,1.938,0,0,0,1.61-.58,4.348,4.348,0,0,0,.455-2.425q0-2.558-.59-3.2a50.028,50.028,0,0,0-6.31-3.815q-4.785-2.685-5.83-4.875a11.923,11.923,0,0,1-1.045-5.195,13.423,13.423,0,0,1,1.13-6.3,7.313,7.313,0,0,1,3.83-3.13,16.562,16.562,0,0,1,6.27-1.1,17.778,17.778,0,0,1,6.03.9,9.3,9.3,0,0,1,3.815,2.375,6.407,6.407,0,0,1,1.61,2.745,20.113,20.113,0,0,1,.28,3.945v2.08Z" transform="translate(62.087 -329.188)" fill="#e4e3ef"/>
    <path id="Path_239" data-name="Path 239" d="M341.263,335.852v5.665h-11.17v-5.665Zm0,7.84v35.635h-11.17V343.692Z" transform="translate(83.447 -334.932)" fill="#e4e3ef"/>
    <path id="Path_240" data-name="Path 240" d="M358.041,335.856v43.475h-10.85v-2.585a11.224,11.224,0,0,1-3.275,2.42,8.408,8.408,0,0,1-3.6.805,7.318,7.318,0,0,1-4.375-1.33,5.992,5.992,0,0,1-2.38-3.075,22.1,22.1,0,0,1-.52-5.7v-16.68a22.671,22.671,0,0,1,.52-5.825,5.786,5.786,0,0,1,2.4-3.02,7.672,7.672,0,0,1,4.485-1.3,8.83,8.83,0,0,1,6.735,2.91v-10.1h10.86Zm-10.85,16.805a6.722,6.722,0,0,0-.33-2.625,1.678,1.678,0,0,0-2.635-.07,6.679,6.679,0,0,0-.335,2.7v17.46a8.027,8.027,0,0,0,.32,2.855,1.23,1.23,0,0,0,1.235.69,1.385,1.385,0,0,0,1.4-.765,11.83,11.83,0,0,0,.345-3.745V352.661Z" transform="translate(95.239 -334.936)" fill="#e4e3ef"/>
    <path id="Path_241" data-name="Path 241" d="M363.646,356.385H349.6v7.7a8.654,8.654,0,0,0,.345,3.115,1.361,1.361,0,0,0,1.345.7,1.64,1.64,0,0,0,1.655-.93,10.1,10.1,0,0,0,.415-3.585v-4.7h10.285v2.63a23.505,23.505,0,0,1-.415,5.08,10.372,10.372,0,0,1-1.95,3.785,9.437,9.437,0,0,1-3.875,3.02,15.064,15.064,0,0,1-5.9,1.005,17.1,17.1,0,0,1-6.07-.995,9.615,9.615,0,0,1-4.09-2.725,9.811,9.811,0,0,1-2.03-3.815,24.708,24.708,0,0,1-.56-6.055v-10.4a17.72,17.72,0,0,1,1.26-7.37,8.67,8.67,0,0,1,4.135-4.135,16.615,16.615,0,0,1,14.14.3,9.508,9.508,0,0,1,4.165,4.595,21.556,21.556,0,0,1,1.19,8.04v4.73Zm-10.87-5.8V347.98a12.955,12.955,0,0,0-.3-3.57,1.163,1.163,0,0,0-1.2-.8c-.75,0-1.215.23-1.4.685a14.208,14.208,0,0,0-.27,3.69v2.605Z" transform="translate(118.099 -329.18)" fill="#e4e3ef"/>
    <path id="Path_242" data-name="Path 242" d="M355.482,337.936l-.185,3.28a8.117,8.117,0,0,1,2.885-2.945,7.739,7.739,0,0,1,3.935-.98,7.442,7.442,0,0,1,4.565,1.315,5.831,5.831,0,0,1,2.28,3.315,30.283,30.283,0,0,1,.515,6.675v24.975h-10.85v-24.68a22.9,22.9,0,0,0-.245-4.485c-.16-.535-.605-.8-1.345-.8a1.348,1.348,0,0,0-1.45.93,23.377,23.377,0,0,0-.295,4.95v24.09h-10.85V337.936h11.04Z" transform="translate(140.843 -329.176)" fill="#e4e3ef"/>
    <path id="Path_243" data-name="Path 243" d="M363.064,336.477v5.615h2.925v5.635h-2.925V366.8q0,3.517.36,3.915c.245.275,1.25.405,3.02.405v5.745h-4.38a31.337,31.337,0,0,1-5.29-.31,5.691,5.691,0,0,1-2.795-1.425,4.674,4.674,0,0,1-1.505-2.55,45.31,45.31,0,0,1-.3-6.755v-18.1h-2.335v-5.635h2.335v-5.615h10.89Z" transform="translate(162.431 -332.473)" fill="#e4e3ef"/>
    <path id="Path_244" data-name="Path 244" d="M364.718,335.852v5.665h-11.17v-5.665Zm0,7.84v35.635h-11.17V343.692Z" transform="translate(177.267 -334.932)" fill="#e4e3ef"/>
    <path id="Path_245" data-name="Path 245" d="M366.643,351.736H356.468v-2.39a16.831,16.831,0,0,1,.95-6.375,8.877,8.877,0,0,1,3.83-3.96,14.41,14.41,0,0,1,7.465-1.72q5.505,0,8.295,1.945a7.58,7.58,0,0,1,3.36,4.78,75.227,75.227,0,0,1,.56,11.67v17.885h-10.55V370.4a6.627,6.627,0,0,1-6.315,3.815,9.149,9.149,0,0,1-5.22-1.6q-2.377-1.6-2.38-6.995v-2.93q0-4,1.26-5.45t6.26-3.385c3.565-1.395,5.47-2.34,5.72-2.815a7.461,7.461,0,0,0,.375-2.96,9.941,9.941,0,0,0-.415-3.64,1.431,1.431,0,0,0-1.38-.845c-.73,0-1.19.24-1.37.715a14.628,14.628,0,0,0-.27,3.69v3.735Zm3.44,4.89q-2.6,1.905-3.02,3.2a12.585,12.585,0,0,0-.42,3.705,10.675,10.675,0,0,0,.365,3.57,1.42,1.42,0,0,0,1.435.81,1.333,1.333,0,0,0,1.33-.635,10.2,10.2,0,0,0,.31-3.315v-7.33Z" transform="translate(188.927 -329.176)" fill="#e4e3ef"/>
    <path id="Path_246" data-name="Path 246" d="M373.274,335.852v43.475H362.1V335.852Z" transform="translate(211.491 -334.932)" fill="#e4e3ef"/>
  </g>
  <g id="Group_110" data-name="Group 110" transform="translate(72.835 180.945)">
    <path id="Path_247" data-name="Path 247" d="M214.567,498.4h864.255l-11.545-50.915-11.545-2.31V410.184l-14.25-4.385V373.3l-11.29-9.67-36.7,2.915v27.09l-15.99-.16v-51.2l-14.285-7.35-70.675,4.41v25.76h-21.77V252.664l-26.95-16.475-72.385,7.7-4.055,2.915v176.28l-520.645-73.9-20,43.04,48.09,4.52v4.6l22.09,10.595-21.06,80.29ZM379.3,436.369s-8.025-24.7-.92-29.965l53.2,4.955V416l18.765,9.02-13.36,50.95-45.04,4.555A435.131,435.131,0,0,0,379.3,436.369Zm346.135,2.37a29.387,29.387,0,0,1,8.18,7.315l-28.84,2.91a29.463,29.463,0,0,1,12.215-11Zm-29.48,4.94-1.675,6.345-45.7,4.615c-.175-.545-.33-1.075-.555-1.645,0,0-5.53-17.15-1.035-21.565l35.035,3.27v2.31Zm-74.535-14.635c5.335,2.835,13.495,9.74,19.5,26.355l-51.145,5.165c3.75-13.51,10.6-26.875,23.095-32.3Zm-33.555,6.125-6.9,26.29L526.967,466.9c-1.76-6.215-3.91-13.275-6.595-21.125,0,0-7.67-23.8.64-26.095l50.72,4.735v2.99ZM486.182,416.454c6.955,2.51,23.585,12.535,31.13,51.42L448.6,474.8c2.65-21.055,10.465-50.83,33.32-58.745Zm259.185,28.425a7.38,7.38,0,0,1,1.27-4.165l20.755,1.93Zm-413.215-42.79,9.52.895c10.485,5.01,30.925,22.045,36.865,78.9l-85.225,8.58C293.787,472.184,298.067,415.839,332.152,402.089Z" transform="translate(-214.567 -236.189)" fill="#0c132d"/>
    <path id="Path_248" data-name="Path 248" d="M746.97,244.708l63.435-7.215v188.68l-589.9-54.43,9.275-16.13,517.195,62.74Z" transform="translate(-190.835 -230.973)" fill="#e4e3ef"/>
    <path id="Path_249" data-name="Path 249" d="M350.985,260.624l57.34-3.61v93.235h-57.34Z" transform="translate(331.105 -152.889)" fill="#e4e3ef"/>
  </g>
</svg>
