<svg xmlns="http://www.w3.org/2000/svg" width="556" height="157.283" viewBox="0 0 556 157.283">
  <g id="NavLogo" data-name="Group 119" transform="translate(-58 -21)">
    <text id="River_City_Pro_Wash" data-name="River City Pro Wash" transform="translate(58 92)" fill="#fff" font-size="70" font-family="Impact"><tspan x="0" y="0">River City Pro Wash</tspan></text>
    <path id="Path_250" data-name="Path 250" d="M235.7,379.479l-4.562,6.976-6.74-4.914L229,374.8l-.893-4.966,2.6-3.016,4.377-.8,21.333-19.134s2.671-2.715-.209-10.906a3.928,3.928,0,0,0-.168-.479c-3.15-8.56,11.641-10.27,11.641-10.27l42.56,2.927a5.581,5.581,0,0,1,2.657,3.9l6.881.315.233,1.3,53.575-.055s-.506-3.433,5.776-3.724.079.455.079.455l116-.243s2.969.794,3.242,3.656l208.733.892,1.464-1.915,3.8-.339.318,1.946,1.146-1.854,2.814-.5.3,1.573,1.525-1.74s4.61-1.744,5.133,2.182l.482,7.749-15.916.722-1.317-3.208-207.823-.564-3.382,4.435-119.345-.274-3.929-4.579-53.49.284-1.453.988-6.464.64s-.424,3.741-5.821,4.159l-5.014.561-35.587,42.122s-5.065,8.225-18.341.619Z" transform="translate(-155.115 -212.61)" fill="#e4e3ef"/>
    <text id="Commercial_Residential" data-name="Commercial | Residential" transform="translate(166 170)" fill="#fff" font-size="36" font-family="Impact"><tspan x="0" y="0">Commercial | Residential</tspan></text>
  </g>
</svg>
